<?xml version="1.0" standalone="no"?>
<!DOCTYPE svg PUBLIC "-//W3C//DTD SVG 20010904//EN"
 "http://www.w3.org/TR/2001/REC-SVG-20010904/DTD/svg10.dtd">
<svg className="w-8 h-8" viewBox="0 0 32 32" xmlns="http://www.w3.org/2000/svg">

<g transform="translate(0.000000,179.000000) scale(0.100000,-0.100000)"
fill="#000000" stroke="none">
<path d="M950 1680 c-63 -10 -121 -19 -127 -19 -10 -1 -13 -42 -13 -168 l0
-168 40 -23 c23 -13 127 -70 233 -128 l192 -106 148 21 c82 11 152 23 158 26
5 4 9 79 9 170 l0 163 -232 126 c-164 89 -241 126 -262 125 -17 -1 -83 -9
-146 -19z"/>
<path d="M602 1257 l-142 -21 2 -170 3 -170 225 -123 c124 -67 237 -123 251
-123 25 0 207 25 262 36 15 3 27 11 27 18 0 9 14 13 48 11 26 -1 101 6 167 16
66 10 123 18 128 18 4 1 7 74 6 164 0 100 -4 154 -9 142 -5 -11 -9 -14 -9 -7
-1 18 -19 15 -24 -5 -4 -17 -5 -17 -6 0 -2 25 -21 21 -22 -5 0 -22 -1 -22 -11
2 l-11 25 -6 -25 c-6 -21 -8 -22 -14 -7 -9 24 -27 21 -28 -5 0 -23 0 -23 -10
1 -12 30 -20 22 -29 -26 l-8 -38 -1 38 c-1 51 -21 47 -21 -5 0 -47 -16 -42
-22 7 -4 41 -23 38 -25 -3 -2 -47 -13 -54 -13 -9 0 39 -19 52 -21 15 -1 -23
-1 -23 -8 1 -5 18 -56 51 -231 146 -141 77 -228 119 -232 112 -5 -8 -14 -7
-33 1 -14 7 -29 11 -33 11 -4 -1 -71 -11 -150 -22z"/>
<path d="M780 485 c0 -68 2 -75 20 -75 15 0 20 7 20 25 0 32 20 32 59 -1 20
-17 40 -24 58 -22 l28 3 -33 21 -33 20 26 12 c19 9 25 19 25 41 0 40 -23 51
-104 51 l-66 0 0 -75z m120 25 c0 -17 -7 -20 -40 -20 -33 0 -40 3 -40 20 0 17
7 20 40 20 33 0 40 -3 40 -20z"/>
<path d="M1007 553 c-4 -3 -7 -37 -7 -75 0 -61 2 -68 19 -68 14 0 21 8 23 28
3 25 6 27 63 32 60 5 60 5 63 39 2 20 -2 37 -10 42 -15 10 -142 12 -151 2z
m123 -38 c0 -11 -12 -15 -45 -15 -42 0 -54 7 -38 23 3 4 24 7 45 7 27 0 38 -4
38 -15z"/>
<path d="M1230 485 c0 -68 2 -75 20 -75 15 0 20 7 20 30 0 29 1 29 63 32 60 3
62 4 65 31 6 46 -12 57 -94 57 l-74 0 0 -75z m128 28 c2 -9 -10 -13 -42 -13
-35 0 -46 4 -46 16 0 12 9 14 42 12 23 -2 43 -9 46 -15z"/>
<path d="M170 304 l0 -45 47 3 c26 2 48 9 51 16 2 6 -1 12 -8 12 -6 0 -8 -4
-5 -10 4 -6 -10 -10 -34 -10 -40 0 -41 1 -41 35 0 34 1 35 39 35 22 0 42 -5
44 -12 3 -8 6 -6 6 5 1 14 -8 17 -49 17 l-50 0 0 -46z"/>
<path d="M320 305 l0 -46 58 3 57 3 3 43 3 42 -60 0 -61 0 0 -45z m100 0 c0
-35 0 -35 -45 -35 -45 0 -45 0 -45 35 0 35 0 35 45 35 45 0 45 0 45 -35z"/>
<path d="M491 303 l2 -48 6 39 6 39 30 -24 c70 -57 65 -57 63 -3 -1 37 -2 41
-5 17 -2 -18 -7 -33 -10 -33 -3 0 -22 14 -43 30 -21 17 -41 30 -44 30 -3 0 -5
-21 -5 -47z"/>
<path d="M663 343 c24 -4 27 -8 27 -44 0 -21 5 -39 10 -39 6 0 10 18 10 39 0
36 3 40 28 44 15 2 -2 4 -38 4 -36 0 -53 -2 -37 -4z"/>
<path d="M800 305 l0 -45 53 2 52 2 -47 3 c-54 5 -67 29 -20 36 l27 4 -27 2
c-17 0 -28 7 -28 15 0 11 14 16 48 19 l47 3 -52 2 -53 2 0 -45z"/>
<path d="M941 303 l2 -48 6 38 6 39 45 -36 c25 -20 47 -36 50 -36 3 0 5 20 5
45 0 25 -3 45 -7 45 -5 0 -8 -13 -8 -30 0 -16 -3 -30 -6 -30 -3 0 -23 14 -44
30 -21 17 -41 30 -44 30 -3 0 -5 -21 -5 -47z"/>
<path d="M1110 305 l0 -45 53 2 52 2 -47 3 c-54 5 -67 29 -20 36 l27 4 -27 2
c-17 0 -28 7 -28 15 0 11 14 16 48 19 l47 3 -52 2 -53 2 0 -45z"/>
<path d="M1255 305 l0 -45 38 0 c50 0 77 15 77 43 0 34 -19 47 -69 47 l-46 0
0 -45z m100 15 c9 -30 -12 -50 -51 -50 -32 0 -34 2 -34 35 0 34 1 35 39 35 31
0 41 -4 46 -20z"/>
<path d="M1420 305 l0 -45 55 0 55 0 0 45 0 45 -55 0 -55 0 0 -45z m100 0 c0
-35 0 -35 -45 -35 -45 0 -45 0 -45 35 0 35 0 35 45 35 45 0 45 0 45 -35z"/>
<path d="M1591 303 c1 -27 4 -38 6 -25 5 28 34 29 58 2 10 -11 23 -20 29 -20
6 0 3 5 -6 11 -22 12 -23 29 -3 29 9 0 15 9 15 25 0 23 -3 25 -50 25 l-50 0 1
-47z m84 22 c0 -5 -17 -11 -37 -13 -30 -3 -38 0 -38 13 0 13 8 16 38 13 20 -2
37 -7 37 -13z"/>
<path d="M1740 305 l0 -45 53 2 52 1 -44 6 c-51 7 -69 30 -24 32 27 1 27 1 4
8 -44 12 -35 30 16 34 l48 3 -52 2 -53 2 0 -45z"/>
<path d="M1883 334 c-8 -21 14 -34 60 -34 27 0 37 -4 37 -16 0 -13 -9 -15 -50
-12 -28 1 -50 -1 -50 -5 0 -4 24 -7 53 -5 45 3 52 6 55 26 3 20 -1 22 -42 22
-36 0 -46 4 -46 16 0 14 8 16 45 12 24 -3 42 -2 39 3 -3 5 -25 9 -50 9 -32 0
-46 -5 -51 -16z"/>
</g>
</svg>
